<svg width="335" height="155" viewBox="0 0 335 155" fill="none" xmlns="http://www.w3.org/2000/svg">
<path d="M0 20.6667C0 9.25278 9.25278 0 20.6667 0H314.333C325.747 0 335 9.25278 335 20.6667V134.333C335 145.747 325.747 155 314.333 155H20.6667C9.25279 155 0 145.747 0 134.333V20.6667Z" fill="#D23E50"/>
<mask id="mask0_140_4797" style="mask-type:alpha" maskUnits="userSpaceOnUse" x="0" y="0" width="335" height="155">
<path d="M0 20.6667C0 9.25278 9.25278 0 20.6667 0H314.333C325.747 0 335 9.25278 335 20.6667V134.333C335 145.747 325.747 155 314.333 155H20.6667C9.25279 155 0 145.747 0 134.333V20.6667Z" fill="#EFB637"/>
</mask>
<g mask="url(#mask0_140_4797)">
<ellipse cx="40.8333" cy="36.6833" rx="50.6333" ry="48.05" fill="#D7495B"/>
<ellipse cx="17.5832" cy="144.667" rx="32.55" ry="31" fill="#D7495B"/>
<ellipse cx="110.067" cy="80.6" rx="22.7333" ry="21.7" fill="#D7495B"/>
<ellipse cx="153.467" cy="24.2834" rx="32.0333" ry="30.4833" fill="#D7495B"/>
<ellipse cx="164.317" cy="149.833" rx="54.25" ry="51.6667" fill="#D7495B"/>
<ellipse cx="317.767" cy="73.3667" rx="42.3667" ry="40.3" fill="#D7495B"/>
<ellipse cx="80.1001" cy="123.483" rx="11.3667" ry="10.85" fill="#D7495B"/>
<ellipse cx="232.517" cy="42.8833" rx="25.3167" ry="24.2833" fill="#D7495B"/>
<ellipse cx="253.183" cy="112.633" rx="13.95" ry="13.4333" fill="#D7495B"/>
<ellipse cx="308.467" cy="144.15" rx="18.6" ry="18.0833" fill="#D7495B"/>
<ellipse cx="307.433" cy="13.95" rx="10.3333" ry="9.81667" fill="#D7495B"/>
<ellipse cx="277.467" cy="18.6" rx="5.16667" ry="5.16667" fill="#D7495B"/>
<ellipse cx="190.667" cy="77.5" rx="12.4" ry="12.4" fill="#D7495B"/>
</g>
</svg>
