<svg width="130" height="130" viewBox="0 0 130 130" fill="none" xmlns="http://www.w3.org/2000/svg">
<path opacity="0.07" d="M64.9997 130C59.8259 130.007 54.8605 127.962 51.1935 124.312L46.4485 119.567C44.6121 117.737 42.1245 116.712 39.5323 116.716H32.8533C27.664 116.709 22.6892 114.645 19.0201 110.975C15.351 107.305 13.2873 102.33 13.2815 97.1406V90.4581C13.2818 87.8629 12.2533 85.3734 10.4216 83.535L5.75412 78.8732C2.0827 75.2092 0.0135326 70.2391 6.61419e-05 65.0521C-0.0134003 59.8651 2.02993 54.8843 5.68228 51.2013L10.4273 46.4494C12.2566 44.6129 13.282 42.1253 13.2781 39.5331V32.8632C13.2833 27.6727 15.3472 22.6963 19.017 19.0258C22.6869 15.3552 27.6629 13.2904 32.8533 13.2844H39.5357C40.8209 13.2876 42.0939 13.0359 43.281 12.5438C44.4682 12.0517 45.546 11.329 46.452 10.4175L51.1274 5.7569C54.7903 2.08384 59.7605 0.0135342 64.9478 6.61212e-05C70.1351 -0.0134019 75.1159 2.03107 78.7979 5.68505L83.5429 10.4301C84.4498 11.3372 85.5272 12.0561 86.7129 12.5453C87.8987 13.0346 89.1695 13.2846 90.4522 13.281H97.1347C102.325 13.2879 107.3 15.3533 110.969 19.024C114.638 22.6946 116.702 27.6709 116.706 32.8609V39.5366C116.706 42.1318 117.735 44.6213 119.566 46.4597L124.234 51.1272C127.902 54.7763 129.975 59.7301 130 64.9043C130.024 70.0786 127.998 75.0517 124.364 78.7352C124.299 78.8002 124.241 78.8721 124.176 78.9302L119.561 83.5452C117.731 85.3817 116.706 87.8694 116.71 90.4615V97.1372C116.704 102.327 114.64 107.303 110.97 110.973C107.3 114.643 102.325 116.707 97.1347 116.713H90.4522C87.8588 116.711 85.3711 117.74 83.536 119.573L78.8606 124.24C77.0455 126.069 74.886 127.519 72.5068 128.508C70.1276 129.496 67.5761 130.004 64.9997 130Z" fill="#D23E50"/>
<path d="M65.0019 119.732C60.6433 119.74 56.4597 118.018 53.3704 114.943L49.3792 110.952C47.8332 109.41 45.7384 108.546 43.5554 108.549H37.9301C33.56 108.543 29.3707 106.804 26.2811 103.713C23.1915 100.623 21.454 96.4327 21.4498 92.0626V86.4418C21.4526 84.2552 20.5881 82.1567 19.046 80.6066L15.1106 76.6815C12.0197 73.5956 10.2781 69.4102 10.2676 65.0426C10.2572 60.6749 11.9786 56.4812 15.0548 53.3806L19.046 49.3802C20.5872 47.8341 21.4514 45.7394 21.4487 43.5564V37.939C21.4529 33.5686 23.1905 29.3783 26.2803 26.2874C29.3701 23.1965 33.5597 21.4574 37.9301 21.4517H43.5566C44.6384 21.4544 45.7101 21.2425 46.7096 20.8284C47.709 20.4142 48.6164 19.8059 49.3792 19.0387L53.3145 15.1136C56.3996 12.0201 60.5857 10.2767 64.9546 10.2658C69.3234 10.2549 73.5182 11.9774 76.6187 15.0554L80.6099 19.0467C81.3731 19.8106 82.2799 20.4162 83.2779 20.8285C84.276 21.2409 85.3457 21.4519 86.4256 21.4494H92.0521C96.4243 21.453 100.616 23.1915 103.708 26.2831C106.799 29.3747 108.538 33.5668 108.542 37.939V43.5644C108.541 45.7496 109.407 47.8459 110.95 49.3939L114.88 53.3235C117.969 56.3956 119.716 60.5667 119.737 64.9237C119.759 69.2806 118.053 73.4686 114.994 76.5709C114.939 76.6256 114.89 76.6849 114.835 76.7351L110.949 80.6214C109.407 82.1659 108.541 84.2593 108.542 86.4418V92.0638C108.536 96.4331 106.797 100.622 103.708 103.711C100.618 106.801 96.4294 108.539 92.0601 108.544H86.4325C84.2487 108.543 82.1539 109.409 80.6087 110.953L76.6734 114.882C75.145 116.422 73.3265 117.643 71.3232 118.476C69.3198 119.308 67.1714 119.735 65.0019 119.732Z" fill="#D23E50"/>
<path d="M59.5101 79.8276C58.4385 79.8308 57.409 79.4107 56.6455 78.6588L45.6629 67.8254C45.2869 67.4576 44.9882 67.0184 44.7843 66.5337C44.5804 66.0489 44.4753 65.5283 44.4753 65.0024C44.4753 64.4765 44.5804 63.9559 44.7843 63.4711C44.9882 62.9864 45.2869 62.5472 45.6629 62.1794C46.4267 61.4289 47.4548 61.0083 48.5257 61.0083C49.5966 61.0083 50.6247 61.4289 51.3885 62.1794L59.5112 70.1893L78.6155 51.3495C79.3793 50.5989 80.4074 50.1783 81.4783 50.1783C82.5492 50.1783 83.5773 50.5989 84.3411 51.3495C84.7171 51.7177 85.0157 52.1573 85.2196 52.6424C85.4235 53.1275 85.5286 53.6485 85.5286 54.1747C85.5286 54.7009 85.4235 55.2219 85.2196 55.707C85.0157 56.1922 84.7171 56.6317 84.3411 56.9999L62.3792 78.6588C61.6146 79.4118 60.5833 79.832 59.5101 79.8276Z" fill="white"/>
</svg>
